<svg height="435pt" viewBox="-19 0 435 435.22398" width="435pt" xmlns="http://www.w3.org/2000/svg"><path d="m170.269531 221.039062c-3.144531-2.3125-18.199219-15.824218-18.199219-15.824218-19.410156-20.167969-29.222656-43.953125-29.222656-70.964844v-55.292969c32.902344-14.414062 64.164063-32.320312 93.246094-53.410156-5.800781-3.902344-11.515625-7.929687-17.144531-12.070313-29.882813 21.988282-62.113281 40.597657-96.101563 55.480469v55.292969c0 27.011719 9.816406 50.800781 29.226563 70.964844 0 0 15.058593 13.511718 18.203125 15.824218 10.992187 7.988282 22.855468 14.703126 35.363281 20.015626-5.304687-3.054688-10.433594-6.398438-15.371094-10.015626zm0 0" fill="#d4e1f4"/><path d="m169.832031 361.5625-.675781-11.582031c-.007812-.164063-.023438-.328125-.046875-.488281-3.292969-23.730469-19.625-43.597657-42.269531-51.417969l-3.765625-1.3125c-5.03125-1.757813-9.605469-4.628907-13.382813-8.394531l-18.070312-18.066407-6.164063-20.863281c-3.136719-11.578125-12.917969-20.140625-24.808593-21.710938l-.792969-2.644531c-.015625-.050781-.03125-.101562-.046875-.144531-3-9.152344-12.691406-15.152344-22.777344-14.914062l-.03125-.09375c-4.105469-13.808594-18.355469-21.941407-32.335938-18.449219-3.078124.765625-5.03125 3.796875-4.449218 6.917969l20.046875 107.902343c.050781.277344.125.554688.214843.824219 4.796876 14.101562 13.980469 26.300781 26.207032 34.8125l43.789062 30.171875c.105469.074219.214844.144531.324219.207031 2.785156 1.660156 4.871094 4.273438 5.875 7.355469l3.316406 44.832031c.179688 2.40625 1.78125 4.472656 4.070313 5.242188l.902344.300781c19.949218 6.753906 41.542968 6.902344 61.585937.425781l2.199219-.699218c2.484375-.796876 4.167968-3.105469 4.167968-5.710938v-25.171875c-.113281-11.71875-1.0625-23.414063-2.84375-35-.117187-.765625-.195312-1.546875-.238281-2.328125zm-95.949219-108.957031c.015626.050781.027344.097656.042969.15625l1.269531 4.289062c-2.042968-.882812-4.175781-1.546875-6.359374-1.984375l-4.109376-13.710937c4.519532 2.273437 7.847657 6.367187 9.15625 11.25zm-25.5-24 7.933594 26.464843c-1.828125.355469-3.617187.871094-5.351562 1.535157l-10.242188-34.214844c3.5625.867187 6.625 3.164063 7.65625 6.21875zm112.523438 191.054687c-16.074219 4.777344-33.191406 4.753906-49.253906-.070312l-3.070313-41.464844c-.027343-.402344-.097656-.800781-.207031-1.1875-1.738281-6.183594-5.757812-11.476562-11.246094-14.808594l-43.625-30.058594c-9.988281-6.957031-17.523437-16.894531-21.527344-28.390624l-18.742187-100.855469c5.800781.808593 10.59375 4.929687 12.265625 10.542969l14.015625 46.859374.957031 3.085938c-.15625.148438-.308594.300781-.460937.453125-1.15625 1.160156-1.789063 2.742187-1.753907 4.378906.039063 1.636719.746094 3.1875 1.957032 4.292969l21.933594 20.039062c6.332031 5.78125 12.121093 12.132813 17.296874 18.96875 2.011719 2.617188 5.753907 3.121094 8.382813 1.128907 2.628906-1.988281 3.160156-5.726563 1.1875-8.371094-5.617187-7.417969-11.902344-14.3125-18.769531-20.589844l-16.554688-15.113281c7.652344-3.792969 16.867188-2.285156 22.910156 3.746094l24.597657 24.601562c5.058593 5.046875 11.1875 8.894532 17.933593 11.253906l3.761719 1.308594c18.3125 6.324219 31.550781 22.351563 34.300781 41.527344l.65625 11.328125c.066407 1.109375.179688 2.230469.335938 3.328125 1.699219 11.023438 2.609375 22.152344 2.722656 33.300781zm0 0" fill="#0635c9"/><path d="m393.234375 191.480469c-13.980469-3.492188-28.230469 4.636719-32.335937 18.449219l-.03125.097656c-10.085938-.234375-19.78125 5.761718-22.777344 14.914062-.015625.046875-.03125.101563-.046875.144532l-.792969 2.644531c-11.890625 1.570312-21.675781 10.128906-24.8125 21.707031l-6.164062 20.863281-18.070313 18.070313c-3.777344 3.765625-8.351563 6.632812-13.386719 8.394531l-3.761718 1.308594c-22.644532 7.820312-38.976563 27.691406-42.269532 51.417969-.023437.164062-.039062.328124-.050781.492187l-.671875 11.582031c-.042969.777344-.125 1.5625-.234375 2.332032-1.78125 11.582031-2.730469 23.277343-2.839844 35v25.167968c0 2.566406 1.632813 4.847656 4.058594 5.675782 20.25 6.871093 42.171875 7.019531 62.511719.429687l1.230468-.398437c2.269532-.742188 3.882813-2.757813 4.109376-5.132813l4.308593-44.90625c1-3.105469 3.09375-5.738281 5.894531-7.410156.109376-.0625.21875-.132813.324219-.207031l43.800781-30.179688c12.21875-8.511719 21.398438-20.707031 26.191407-34.804688.09375-.269531.164062-.546874.214843-.824218l20.050782-107.902344c.585937-3.121094-1.367188-6.160156-4.449219-6.925781zm-43.71875 37.128906c1.03125-3.054687 4.09375-5.351563 7.652344-6.21875l-10.234375 34.21875c-1.734375-.664063-3.527344-1.179687-5.351563-1.535156zm-25.5 24c1.304687-4.882813 4.636719-8.976563 9.15625-11.25l-4.109375 13.710937c-2.183594.4375-4.316406 1.101563-6.359375 1.984376l1.269531-4.289063c.011719-.054687.023438-.109375.039063-.160156zm41.90625 51.074219c-4 11.492187-11.53125 21.425781-21.511719 28.382812l-43.640625 30.066406c-5.492187 3.332032-9.507812 8.625-11.246093 14.808594-.097657.34375-.164063.699219-.199219 1.058594l-3.988281 41.535156c-15.78125 4.589844-32.539063 4.632813-48.347657.125v-20.769531c.113281-11.148437 1.023438-22.277344 2.722657-33.296875.15625-1.101562.269531-2.222656.332031-3.332031l.660156-11.328125c2.75-19.175782 15.988281-35.203125 34.296875-41.527344l3.765625-1.308594c6.742187-2.359375 12.867187-6.199218 17.925781-11.242187l24.605469-24.605469c6.042969-6.027344 15.253906-7.53125 22.898437-3.742188l-16.539062 15.109376c-6.871094 6.277343-13.152344 13.167968-18.769531 20.585937-1.972657 2.644531-1.441407 6.382813 1.1875 8.375 2.628906 1.988281 6.371093 1.484375 8.378906-1.132813 5.175781-6.835937 10.96875-13.183593 17.300781-18.96875l21.9375-20.039062c1.210938-1.105469 1.914063-2.65625 1.953125-4.292969.039063-1.636719-.597656-3.21875-1.753906-4.378906-.152344-.152344-.304687-.300781-.460937-.453125l.972656-3.140625 14-46.804687c1.671875-5.613282 6.464844-9.734376 12.265625-10.542969zm0 0" fill="#0635c9"/><g fill="#1ae5be"><path d="m303.421875 59.507812-.675781-.289062c-35.574219-15.308594-69.210938-34.785156-100.199219-58.019531-2.132813-1.597657-5.066406-1.597657-7.199219 0-30.988281 23.234375-64.625 42.710937-100.199218 58.019531l-.671876.289062c-2.203124.949219-3.625 3.113282-3.625 5.511719v59.230469c0 38.050781 18.199219 71.480469 52.621094 96.679688 15.828125 11.558593 33.386719 20.539062 52.023438 26.609374 1.082031.316407 2.230468.324219 3.316406.015626 19.1875-6.027344 37.324219-14.992188 53.769531-26.566407 35.636719-25.195312 54.472657-58.644531 54.472657-96.738281v-59.230469c0-2.398437-1.429688-4.566406-3.632813-5.511719zm-8.375 64.742188c0 26.507812-9.820313 49.914062-29.226563 69.847656v-1.46875c0-3.3125-2.6875-6-6-6s-6 2.6875-6 6v6.246094c0 1.707031.730469 3.335938 2.007813 4.472656-3.121094 2.613282-6.421875 5.164063-9.90625 7.644532-14.96875 10.480468-31.375 18.734374-48.714844 24.5-16.765625-5.789063-32.585937-14.03125-46.9375-24.457032-3.144531-2.308594-6.132812-4.683594-8.960937-7.117187 1.722656-1.101563 2.761718-3.003907 2.761718-5.046875v-6.242188c0-3.3125-2.6875-6-6-6s-6 2.6875-6 6v2.585938c-19.410156-20.167969-29.222656-43.953125-29.222656-70.964844v-55.292969c33.984375-14.882812 66.214844-33.492187 96.097656-55.480469 29.882813 21.988282 62.113282 40.597657 96.101563 55.480469zm0 0"/><path d="m198.945312 186.628906c-3.3125 0-6 2.6875-6 6v6.246094c0 3.3125 2.6875 6 6 6 3.316407 0 6-2.6875 6-6v-6.246094c0-3.3125-2.683593-6-6-6zm0 0"/><path d="m219.238281 186.628906c-3.3125 0-6 2.6875-6 6v6.246094c0 3.3125 2.6875 6 6 6s6-2.6875 6-6v-6.246094c0-3.3125-2.6875-6-6-6zm0 0"/><path d="m233.53125 192.628906v6.246094c0 3.3125 2.683594 6 6 6 3.3125 0 6-2.6875 6-6v-6.246094c0-3.3125-2.6875-6-6-6-3.316406 0-6 2.6875-6 6zm0 0"/><path d="m178.65625 186.628906c-3.316406 0-6 2.6875-6 6v6.246094c0 3.3125 2.683594 6 6 6 3.3125 0 6-2.6875 6-6v-6.246094c0-3.3125-2.6875-6-6-6zm0 0"/><path d="m158.363281 186.628906c-3.3125 0-6 2.6875-6 6v6.246094c0 3.3125 2.6875 6 6 6s6-2.6875 6-6v-6.246094c0-3.3125-2.6875-6-6-6zm0 0"/><path d="m171.3125 116.851562c-1.511719-1.535156-3.730469-2.144531-5.816406-1.59375-2.082032.554688-3.710938 2.179688-4.261719 4.265626-.554687 2.082031.054687 4.300781 1.589844 5.8125l23.121093 23.117187c2.34375 2.34375 6.144532 2.34375 8.488282 0l40.640625-40.640625c1.535156-1.511719 2.140625-3.730469 1.589843-5.816406-.550781-2.082032-2.179687-3.707032-4.261718-4.261719-2.085938-.550781-4.304688.058594-5.816406 1.59375l-36.398438 36.398437zm0 0"/></g></svg>