<?xml version="1.0"?>
<svg xmlns="http://www.w3.org/2000/svg" id="Layer_1" data-name="Layer 1" viewBox="0 0 512 512" width="512" height="512"><title>Repair Service</title><path d="M133.419,430.219a63.284,63.284,0,0,1,40.95-59.033,7,7,0,0,0,4.55-6.558V147.372a7,7,0,0,0-4.55-6.558A63.1,63.1,0,0,1,135.274,66.54l-4.115-2.879a7,7,0,0,1-2.988-5.76l.091-26.287a62.627,62.627,0,0,0-24.843,50.167,63.284,63.284,0,0,0,40.95,59.033,7,7,0,0,1,4.55,6.558V364.628a7,7,0,0,1-4.55,6.558,63.284,63.284,0,0,0-40.95,59.033A62.644,62.644,0,0,0,128.2,480.335V452.744a7,7,0,0,1,3.12-5.826l3.71-2.471A63.687,63.687,0,0,1,133.419,430.219Z" style="fill:#d4e1f4"/><path d="M392.457,174.013l-33.879-39.478a7,7,0,0,0-9.39-1.131l-27.547,19.743a151.4,151.4,0,0,0-39.432-20L281.314,99.1a7,7,0,0,0-6.509-6.8l-37.9-2.651a7,7,0,0,0-.977,13.967l31.555,2.206.86,32.7a7,7,0,0,0,5.044,6.538,137.534,137.534,0,0,1,44.031,22.317,7,7,0,0,0,8.274.086l26.436-18.946,25.577,29.8-22.5,23.6a7,7,0,0,0-1.014,8.3,133.449,133.449,0,0,1,15.919,46.616,7,7,0,0,0,5.772,5.906l32.266,5.4-2.775,39.676-32.243.886a7,7,0,0,0-6.531,5.044,137.479,137.479,0,0,1-22.314,44.03,7,7,0,0,0-.087,8.275l18.97,26.468-29.891,25.985-23.572-22.469a7,7,0,0,0-8.3-1.015A133.413,133.413,0,0,1,254.8,410.945a7,7,0,0,0-5.905,5.773l-5.4,32.266-11.174-.782a7,7,0,0,0-.977,13.967l17.516,1.226c.166.01.331.016.5.016a7,7,0,0,0,6.9-5.844l5.624-33.588A148.088,148.088,0,0,0,303.748,409.7l24.487,23.343a7,7,0,0,0,9.423.217l39.51-34.346a7,7,0,0,0,1.1-9.361L358.522,362a151.383,151.383,0,0,0,20-39.437l33.585-.922a7,7,0,0,0,6.791-6.509l3.661-52.354a7,7,0,0,0-5.827-7.392l-33.588-5.623a148.055,148.055,0,0,0-14.28-41.876L392.211,183.4A7,7,0,0,0,392.457,174.013Z" style="fill:#1ae5be"/><path d="M188.019,185.331a7,7,0,0,0,9.232,3.573A95.165,95.165,0,1,1,210.84,367.925a7,7,0,1,0-3.634,13.519,109.922,109.922,0,0,0,20.832,3.487q3.9.272,7.778.271a109.184,109.184,0,1,0-44.224-209.1A7,7,0,0,0,188.019,185.331Z" style="fill:#1ae5be"/><path d="M190.655,457.711l-.12,35.2a7.005,7.005,0,0,0,10.123,6.3,76.611,76.611,0,0,0,42.761-68.987,77.394,77.394,0,0,0-45.5-70.28V152.061a77.029,77.029,0,0,0,2.848-139.213A7,7,0,0,0,190.64,19.11v36.4L166.706,71.445,142.184,54.289l.121-35.2a7.008,7.008,0,0,0-10.124-6.3A76.612,76.612,0,0,0,89.419,81.781a77.394,77.394,0,0,0,45.5,70.28V359.939a77.028,77.028,0,0,0-2.847,139.213A7,7,0,0,0,142.2,492.89v-36.4l23.933-15.938ZM131.32,446.918a7,7,0,0,0-3.12,5.826v27.591a62.644,62.644,0,0,1-24.781-50.116,63.284,63.284,0,0,1,40.95-59.033,7,7,0,0,0,4.55-6.558V147.372a7,7,0,0,0-4.55-6.558,63.284,63.284,0,0,1-40.95-59.033,62.627,62.627,0,0,1,24.843-50.167L128.171,57.9a7,7,0,0,0,2.988,5.76L162.6,85.655a7,7,0,0,0,7.892.091L201.52,65.082a7,7,0,0,0,3.12-5.826V31.665a62.643,62.643,0,0,1,24.779,50.116,63.284,63.284,0,0,1-40.949,59.033,7,7,0,0,0-4.551,6.558V364.628a7,7,0,0,0,4.551,6.558,63.284,63.284,0,0,1,40.949,59.033,62.625,62.625,0,0,1-24.841,50.166l.089-26.287a7,7,0,0,0-2.987-5.759l-31.437-21.994a7,7,0,0,0-7.892-.091Z" style="fill:#0635c9"/></svg>
