<svg height="491pt" viewBox="-23 0 491 491.9997" width="491pt" xmlns="http://www.w3.org/2000/svg"><path d="m121.855469 88.140625c-1.917969 0-3.472657 1.554687-3.472657 3.472656v155.433594l20 13v-168.433594c0-1.917969 1.554688-3.472656 3.472657-3.472656zm0 0" fill="#d4e1f4"/><path d="m87.382812 35.949219c-7.148437.007812-12.941406 5.800781-12.949218 12.949219v206.332031l20-7v-199.332031c.007812-7.148438 5.800781-12.941407 12.949218-12.949219zm0 0" fill="#d4e1f4"/><path d="m242.242188 57.375v-17.054688c.015624-11.660156 7.21875-22.105468 18.113281-26.265624-8.640625-3.292969-18.34375-2.125-25.957031 3.121093-7.613282 5.246094-12.15625 13.898438-12.15625 23.144531v17.054688c0 3.316406-2.683594 6-6 6h20c3.316406 0 6-2.683594 6-6zm0 0" fill="#d4e1f4"/><path d="m159.707031 64.375h20v33.480469h-20zm0 0" fill="#d4e1f4"/><g fill="#0635c9"><path d="m254.242188 0c-15.726563.015625-30.046876 9.042969-36.839844 23.226562h-129.613282c-13.996093.015626-25.339843 11.359376-25.355468 25.355469v213.355469c0 3.316406 2.6875 6 6 6 3.316406 0 6-2.683594 6-6v-213.355469c.007812-7.375 5.984375-13.347656 13.355468-13.355469h126.007813c-.261719 1.859376-.394531 3.734376-.398437 5.613282v11.417968h-57.867188c-3.3125 0-6 2.6875-6 6v18.273438h-26.53125c-8.652344.011719-15.664062 7.023438-15.675781 15.675781v157.976563c0 3.3125 2.683593 6 6 6 3.3125 0 6-2.6875 6-6v-157.976563c0-2.03125 1.644531-3.675781 3.675781-3.675781h26.53125v16.179688c0 3.3125 2.6875 6 6 6h197.421875c3.3125 0 6-2.6875 6-6v-16.179688h26.53125c2.027344 0 3.675781 1.644531 3.675781 3.675781v263.394531h-31.078125c-13.996093.011719-25.339843 11.355469-25.355469 25.351563v30.257813h-148.761718c-3.3125 0-6 2.6875-6 6s2.6875 6 6 6h151.015625c.78125-.007813 1.5625-.0625 2.339843-.171876 2.164063.53125 4.445313-.191406 5.910157-1.875 1.546875-.820312 2.960937-1.871093 4.199219-3.113281l48.566406-48.566406c3.316406-3.296875 5.171875-7.78125 5.160156-12.453125v-264.824219c-.011719-8.652343-7.019531-15.664062-15.671875-15.675781h-26.53125v-18.273438c0-3.3125-2.6875-6-6-6h-57.871094v-11.417968c-.003906-1.878906-.140625-3.753906-.402343-5.613282h126.011718c7.375.007813 13.347656 5.980469 13.355469 13.355469v402.578125c-.007813 7.375-5.980469 13.347656-13.355469 13.355469h-286.984375c-3.316406 0-6 2.6875-6 6s2.683594 6 6 6h286.984375c14-.015625 25.339844-11.359375 25.355469-25.355469v-402.578125c-.015625-13.996093-11.355469-25.339843-25.355469-25.355469h-129.609375c-6.792969-14.183593-21.117187-23.210937-36.839843-23.226562zm90.484374 403.789062v-22.835937c.007813-7.371094 5.980469-13.347656 13.355469-13.351563h22.832031zm2.226563-339.53125v34.453126h-185.421875v-34.453126h57.871094c3.3125 0 6-2.6875 6-6v-17.417968c0-15.929688 12.914062-28.839844 28.839844-28.839844 15.925781 0 28.839843 12.910156 28.839843 28.839844v17.417968c0 3.3125 2.683594 6 6 6zm0 0"/><path d="m352.953125 171.851562c3.3125 0 6-2.6875 6-6s-2.6875-6-6-6h-7.277344c-3.316406 0-6 2.6875-6 6s2.683594 6 6 6zm0 0"/><path d="m323.015625 159.851562h-106.660156c-3.3125 0-6 2.6875-6 6s2.6875 6 6 6h106.660156c3.3125 0 6-2.6875 6-6s-2.6875-6-6-6zm0 0"/><path d="m155.53125 171.851562h37.707031c3.316407 0 6-2.6875 6-6s-2.683593-6-6-6h-37.707031c-3.3125 0-6 2.6875-6 6s2.6875 6 6 6zm0 0"/><path d="m326.5625 218.03125c0 3.316406 2.6875 6 6 6h20.390625c3.3125 0 6-2.683594 6-6 0-3.3125-2.6875-6-6-6h-20.390625c-3.3125 0-6 2.6875-6 6zm0 0"/><path d="m310.488281 224.03125c3.3125 0 6-2.683594 6-6 0-3.3125-2.6875-6-6-6h-27.789062c-3.3125 0-6 2.6875-6 6 0 3.316406 2.6875 6 6 6zm0 0"/><path d="m155.53125 224.03125h107.769531c3.3125 0 6-2.683594 6-6 0-3.3125-2.6875-6-6-6h-107.769531c-3.3125 0-6 2.6875-6 6 0 3.316406 2.6875 6 6 6zm0 0"/><path d="m352.953125 267.464844h-112.746094c-3.316406 0-6 2.683594-6 6 0 3.3125 2.683594 6 6 6h112.746094c3.3125 0 6-2.6875 6-6 0-3.316406-2.6875-6-6-6zm0 0"/><path d="m224.128906 273.464844c0-3.316406-2.6875-6-6-6h-26.792968c-3.3125 0-6 2.683594-6 6 0 3.3125 2.6875 6 6 6h26.792968c3.3125 0 6-2.6875 6-6zm0 0"/><path d="m352.953125 318.699219h-72.652344c-3.316406 0-6 2.6875-6 6 0 3.316406 2.683594 6 6 6h72.652344c3.3125 0 6-2.683594 6-6 0-3.3125-2.6875-6-6-6zm0 0"/><path d="m220.117188 330.699219h38.101562c3.3125 0 6-2.683594 6-6 0-3.3125-2.6875-6-6-6h-38.101562c-3.3125 0-6 2.6875-6 6 0 3.316406 2.6875 6 6 6zm0 0"/></g><path d="m141.746094 335.945312-55.257813 44.953126-21.875-25.613282c-1.386719-1.640625-3.546875-2.414062-5.664062-2.027344-2.113281.386719-3.859375 1.878907-4.574219 3.90625-.714844 2.03125-.289062 4.285157 1.113281 5.914063l25.679688 30.070313c2.117187 2.476562 5.820312 2.8125 8.347656.757812l59.800781-48.652344c2.519532-2.105468 2.878906-5.84375.804688-8.390625-2.070313-2.546875-5.800782-2.957031-8.375-.917969zm0 0" fill="#1ae5be"/><path d="m205.085938 354.566406v-58.683594c0-2.214843-1.222657-4.253906-3.179688-5.292968l-97.644531-52.035156c-1.785157-.953126-3.929688-.9375-5.703125.035156l-94.941406 52.03125c-1.921876 1.054687-3.117188 3.070312-3.117188 5.261718v60.035157c.058594 56.320312 33.425781 107.273437 85.03125 129.839843l13.175781 5.742188c1.523438.664062 3.25.667969 4.777344.007812l14.847656-6.410156c52.558594-22.078125 86.75-73.523437 86.753907-130.53125zm-91.496094 119.5-12.472656 5.386719-10.78125-4.699219c-47.234376-20.648437-77.777344-67.285156-77.835938-118.835937v-56.480469l88.980469-48.765625 91.601562 48.8125v55.082031c-.011719 52.195313-31.328125 99.289063-79.453125 119.488282zm0 0" fill="#1ae5be"/></svg>